<svg width="160" height="160" viewBox="0 0 160 160" fill="none" xmlns="http://www.w3.org/2000/svg">
<path d="M80 40C75.0555 40 70.222 41.4662 66.1108 44.2133C61.9995 46.9603 58.7952 50.8648 56.903 55.4329C55.0108 60.0011 54.5157 65.0277 55.4804 69.8773C56.445 74.7268 58.826 79.1814 62.3223 82.6777C65.8187 86.174 70.2732 88.555 75.1228 89.5196C79.9723 90.4843 84.999 89.9892 89.5671 88.097C94.1353 86.2048 98.0397 83.0005 100.787 78.8893C103.534 74.778 105 69.9445 105 65C105 58.3696 102.366 52.0107 97.6777 47.3223C92.9893 42.6339 86.6304 40 80 40Z" fill="#40A3FF"/>
<path d="M80 10C66.1553 10 52.6216 14.1054 41.1101 21.7971C29.5987 29.4888 20.6266 40.4213 15.3285 53.2122C10.0303 66.003 8.6441 80.0777 11.3451 93.6563C14.046 107.235 20.7129 119.708 30.5026 129.497C40.2922 139.287 52.765 145.954 66.3437 148.655C79.9224 151.356 93.997 149.97 106.788 144.672C119.579 139.373 130.511 130.401 138.203 118.89C145.895 107.378 150 93.8447 150 80C149.979 61.4413 142.597 43.6489 129.474 30.5259C116.351 17.403 98.5587 10.0212 80 10V10ZM119.96 124.63C119.86 118.072 117.188 111.815 112.52 107.208C107.851 102.601 101.559 100.012 95 100H65C58.4409 100.012 52.1492 102.601 47.4805 107.208C42.8117 111.815 40.1397 118.072 40.04 124.63C30.9729 116.534 24.5787 105.874 21.7042 94.0633C18.8297 82.2523 19.6105 69.8467 23.9432 58.4893C28.2759 47.1319 35.9561 37.3583 45.9669 30.4628C55.9776 23.5673 67.8467 19.8751 80.0025 19.8751C92.1583 19.8751 104.027 23.5673 114.038 30.4628C124.049 37.3583 131.729 47.1319 136.062 58.4893C140.395 69.8467 141.175 82.2523 138.301 94.0633C135.426 105.874 129.032 116.534 119.965 124.63H119.96Z" fill="#40A3FF"/>
</svg>
