<svg width="100" height="100" viewBox="0 0 100 100" fill="none" xmlns="http://www.w3.org/2000/svg">
<g clip-path="url(#clip0_375_241)">
<path d="M38.2749 58.7499H62.0249C66.6662 58.7499 71.1174 60.5936 74.3993 63.8755C77.6812 67.1574 79.5249 71.6086 79.5249 76.2499L81.7374 97.2374C81.7743 97.587 81.737 97.9406 81.6282 98.2749C81.5192 98.6091 81.3408 98.9168 81.1049 99.1774C80.8689 99.4381 80.5807 99.6461 80.2589 99.7879C79.937 99.9296 79.5891 100.002 79.2374 99.9999H21.0499C20.6983 100.002 20.3503 99.9296 20.0284 99.7879C19.7067 99.6461 19.4184 99.4381 19.1824 99.1774C18.9466 98.9168 18.7683 98.6091 18.6593 98.2749C18.5503 97.9406 18.5131 97.587 18.5499 97.2374L20.7749 76.2499C20.7749 71.6086 22.6187 67.1574 25.9006 63.8755C29.1824 60.5936 33.6337 58.7499 38.2749 58.7499Z" fill="#48A4FB"/>
<path d="M70.5125 76.6874V99.9999H74.3124L70.5125 76.6874Z" fill="#48A4FB"/>
<path d="M62.1925 86.6891L66.547 87.3198C67.5719 87.4683 68.523 86.7578 68.6714 85.7329L72.1774 61.5229C72.3258 60.498 71.6153 59.547 70.5905 59.3985L66.2359 58.7679C65.211 58.6195 64.2599 59.33 64.1115 60.3549L60.6055 84.5648C60.4572 85.5896 61.1677 86.5408 62.1925 86.6891Z" fill="#5B8FBF"/>
<path d="M49.5249 5C56.4868 5 63.1637 7.76561 68.0864 12.6885C73.0093 17.6112 75.7749 24.2881 75.7749 31.25C75.7749 36.5544 73.6678 41.6414 69.917 45.3921C66.1663 49.1429 61.0793 51.25 55.7749 51.25H43.2749C37.9705 51.25 32.8835 49.1429 29.1328 45.3921C25.382 41.6414 23.2749 36.5544 23.2749 31.25C23.2749 24.2881 26.0405 17.6112 30.9634 12.6885C35.8862 7.76561 42.5629 5 49.5249 5Z" fill="#48A4FB"/>
<path d="M40.7749 58.7499H58.2749V63.7499C58.2749 65.4075 57.6164 66.9973 56.4443 68.1693C55.2722 69.3414 53.6825 69.9999 52.0249 69.9999H47.0249C45.3673 69.9999 43.7775 69.3414 42.6055 68.1693C41.4334 66.9973 40.7749 65.4075 40.7749 63.7499V58.7499Z" fill="white" stroke="#5B8FBF" stroke-width="2" stroke-miterlimit="10"/>
<path d="M70.5123 100H29.4873V72.2626C29.4873 72.2626 41.9873 77.4001 49.4873 77.4001C58.7873 77.4001 70.4748 73.0501 70.4748 73.0501L70.5123 100Z" fill="#5B8FBF"/>
<path d="M42.0249 53.75H57.0249V61.25C57.0249 62.2445 56.6298 63.1984 55.9265 63.9016C55.2233 64.6049 54.2694 65 53.2749 65H45.7749C44.7803 65 43.8265 64.6049 43.1233 63.9016C42.42 63.1984 42.0249 62.2445 42.0249 61.25V53.75Z" fill="#F1F1F1"/>
<path d="M49.5249 62.5C44.2205 62.5 39.1335 60.3929 35.3828 56.6421C31.632 52.8914 29.5249 47.8044 29.5249 42.5V31.975C34.6438 31.8215 39.6612 30.5095 44.1999 28.1375C48.1313 25.849 51.7883 23.1187 55.0999 20C55.0999 20 58.3999 25.85 61.1624 28.125C63.659 30.0807 66.5119 31.5326 69.5624 32.4V42.4C69.5755 45.038 69.0668 47.6525 68.0653 50.0931C67.0637 52.5336 65.5893 54.7519 63.7268 56.6201C61.8643 58.4884 59.6507 59.9697 57.2133 60.9789C54.7759 61.988 52.1629 62.505 49.5249 62.5Z" fill="white" stroke="#48A4FB" stroke-width="1.5" stroke-miterlimit="10"/>
<path d="M33.8759 58.7677L29.5214 59.3983C28.4965 59.5467 27.786 60.4978 27.9344 61.5227L31.4404 85.7325C31.5888 86.7574 32.5399 87.4679 33.5648 87.3195L37.9194 86.6889C38.9441 86.5404 39.6546 85.5894 39.5063 84.5645L36.0003 60.3545C35.8519 59.3297 34.9008 58.6192 33.8759 58.7677Z" fill="#5B8FBF"/>
<path d="M54.7624 49.4874C53.4422 50.6469 51.7565 51.3062 49.9999 51.3499C48.2454 51.3523 46.5558 50.6864 45.2749 49.4874" stroke="#5B8FBF" stroke-width="1.5" stroke-miterlimit="10" stroke-linecap="round"/>
<path d="M44.5999 37.1375C44.5999 35.7567 43.4806 34.6375 42.0999 34.6375C40.7191 34.6375 39.5999 35.7567 39.5999 37.1375V38.175C39.5999 39.5556 40.7191 40.675 42.0999 40.675C43.4806 40.675 44.5999 39.5556 44.5999 38.175V37.1375Z" fill="#5B8FBF"/>
<path d="M60.7749 37.1375C60.7749 35.7567 59.6556 34.6375 58.2749 34.6375C56.8942 34.6375 55.7749 35.7567 55.7749 37.1375V38.175C55.7749 39.5556 56.8942 40.675 58.2749 40.675C59.6556 40.675 60.7749 39.5556 60.7749 38.175V37.1375Z" fill="#5B8FBF"/>
<path d="M62.5 82.5H53.75C53.0596 82.5 52.5 83.0596 52.5 83.75V86.25C52.5 86.9404 53.0596 87.5 53.75 87.5H62.5C63.1904 87.5 63.75 86.9404 63.75 86.25V83.75C63.75 83.0596 63.1904 82.5 62.5 82.5Z" fill="white"/>
<path d="M65.3 13.5374C65.2125 20.8749 52.9125 16.0374 51.7875 16.2999C44.2875 18.3874 36.8625 21.5999 36.95 14.2499C37.0375 6.89999 43.45 0.787489 51.25 0.587489C59.05 0.387489 65.375 6.24999 65.3 13.5374Z" fill="#48A4FB"/>
<path d="M68.65 33.0874L68.55 44.0749C68.55 53.7124 59.8 61.5749 49 61.5749C48.3875 61.5749 47.75 61.5749 47.175 61.4874C57.1125 60.6624 64.8875 53.1999 64.8875 44.1124V31.6124C65.4747 31.9344 66.0799 32.2224 66.7 32.4749C67.2 32.5624 68.65 33.0874 68.65 33.0874Z" fill="#F1F1F1"/>
<path d="M29.4875 76.6874V99.9999H25.6875L29.4875 76.6874Z" fill="#48A4FB"/>
</g>
<defs>
<clipPath id="clip0_375_241">
<rect width="100" height="100" fill="white"/>
</clipPath>
</defs>
</svg>
