<svg width="100" height="100" viewBox="0 0 100 100" fill="none" xmlns="http://www.w3.org/2000/svg">
<path d="M55.4999 7.49995L60.9374 3.52495C61.6254 3.02075 62.4206 2.68228 63.2608 2.53595C64.1012 2.38963 64.9639 2.43939 65.7818 2.68138C66.5998 2.92336 67.3507 3.35103 67.9762 3.931C68.6016 4.51098 69.0846 5.22759 69.3874 6.02495L71.8874 12.275C72.3091 13.3746 73.0688 14.3118 74.0572 14.9521C75.0456 15.5923 76.2116 15.9023 77.3874 15.8374L84.0874 15.4499C84.9404 15.4039 85.7926 15.5541 86.5786 15.8889C87.3644 16.2237 88.0631 16.7343 88.6208 17.3813C89.1784 18.0284 89.5804 18.7947 89.7957 19.6214C90.0109 20.4481 90.0338 21.3131 89.8624 22.1499L88.5249 28.7749C88.2863 29.9316 88.4203 31.1341 88.9076 32.2098C89.3949 33.2856 90.2106 34.1792 91.2374 34.7624L97.0874 38.0874C97.8237 38.5141 98.4536 39.1021 98.9297 39.8073C99.4058 40.5127 99.7157 41.3167 99.8361 42.1591C99.9563 43.0014 99.8841 43.8602 99.6244 44.6706C99.3648 45.4809 98.9248 46.2218 98.3374 46.8374L93.6624 51.6874C92.8407 52.5362 92.3076 53.6226 92.1393 54.7919C91.9709 55.9613 92.1759 57.1539 92.7249 58.1999L95.8624 64.1749C96.2613 64.9309 96.4818 65.7683 96.5071 66.6227C96.5323 67.4772 96.3617 68.3261 96.0082 69.1043C95.6546 69.8826 95.1276 70.5696 94.4674 71.1126C93.8074 71.6557 93.0317 72.0404 92.1999 72.2374L85.6624 73.7749C84.5094 74.0449 83.4723 74.6751 82.7013 75.5741C81.9304 76.4731 81.4659 77.5942 81.3749 78.7749L80.8124 85.4999C80.7449 86.3512 80.4824 87.1754 80.0451 87.9088C79.6078 88.6423 79.0076 89.2652 78.2908 89.7293C77.5741 90.1934 76.7601 90.4863 75.9119 90.5853C75.0638 90.6843 74.2043 90.5866 73.3999 90.2999L67.0749 88.0249C65.9712 87.6347 64.7723 87.6036 63.6498 87.9358C62.5272 88.2681 61.5384 88.9468 60.8249 89.8749L56.7249 95.2249C56.2083 95.9037 55.5418 96.4539 54.7776 96.8327C54.0132 97.2114 53.1717 97.4086 52.3187 97.4086C51.4657 97.4086 50.6242 97.2114 49.8599 96.8327C49.0956 96.4539 48.4291 95.9037 47.9124 95.2249L43.7499 89.9999C43.0339 89.0748 42.0452 88.3984 40.9234 88.0664C39.8018 87.7344 38.6041 87.7636 37.4999 88.1499L31.1874 90.4249C30.3788 90.7169 29.5137 90.8174 28.6597 90.7187C27.8057 90.6201 26.9862 90.3247 26.2656 89.8559C25.5449 89.3872 24.9427 88.7579 24.5063 88.0173C24.0698 87.2767 23.8109 86.4449 23.7499 85.5874L23.1749 78.8624C23.0859 77.6811 22.6219 76.5589 21.8508 75.6597C21.0796 74.7603 20.0414 74.1307 18.8874 73.8624L12.3249 72.3499C11.4929 72.1537 10.7169 71.7691 10.0569 71.2258C9.39682 70.6824 8.87023 69.9949 8.51766 69.2161C8.16507 68.4373 7.99591 67.5879 8.02318 66.7334C8.05044 65.8791 8.27343 65.0422 8.67494 64.2874L11.7999 58.3124C12.3487 57.2672 12.5546 56.0757 12.3886 54.9069C12.2226 53.7381 11.693 52.6511 10.8749 51.7999L6.24994 46.9499C5.66257 46.3343 5.22252 45.5934 4.96294 44.7831C4.70337 43.9727 4.63102 43.1139 4.75136 42.2716C4.87169 41.4292 5.18158 40.6251 5.65768 39.9198C6.13377 39.2146 6.76367 38.6266 7.49994 38.1999L13.3374 34.8749C14.3626 34.2892 15.1774 33.3957 15.6664 32.3211C16.1556 31.2464 16.2941 30.0452 16.0624 28.8874L14.7249 22.2624C14.5536 21.4256 14.5764 20.5606 14.7917 19.7339C15.0069 18.9072 15.4089 18.1409 15.9666 17.4938C16.5243 16.8468 17.2229 16.3362 18.0088 16.0014C18.7948 15.6666 19.6469 15.5164 20.4999 15.5624L27.1999 15.9499C28.3758 16.0148 29.5418 15.7048 30.5302 15.0646C31.5186 14.4243 32.2783 13.4871 32.6999 12.3875L35.1249 6.13745C35.4294 5.3398 35.9137 4.62314 36.5403 4.04322C37.1669 3.4633 37.9189 3.03577 38.7377 2.79388C39.5564 2.55199 40.4201 2.50227 41.2612 2.64858C42.1023 2.79489 42.8984 3.13329 43.5874 3.63745L48.9624 7.49995C49.9111 8.19372 51.0559 8.56765 52.2312 8.56765C53.4064 8.56765 54.5513 8.19372 55.4999 7.49995Z" fill="#62A2DE"/>
<path d="M40.275 2.5H36.2V6.575H40.275V2.5Z" fill="#48A4FB"/>
<path d="M63.3499 2.5H59.2749V6.575H63.3499V2.5Z" fill="#48A4FB"/>
<path d="M29.4251 86.6376H25.3501V90.7126H29.4251V86.6376Z" fill="#48A4FB"/>
<path d="M52.4876 93.425H48.4126V97.5001H52.4876V93.425Z" fill="#48A4FB"/>
<path d="M75.5625 86.6376H71.4875V90.7126H75.5625V86.6376Z" fill="#48A4FB"/>
<path d="M51.0751 7.50012L56.5001 3.57512C57.1881 3.07091 57.9832 2.73245 58.8235 2.58612C59.6639 2.4398 60.5266 2.48956 61.3445 2.73155C62.1624 2.97354 62.9134 3.4012 63.5387 3.98117C64.1642 4.56115 64.6472 5.27776 64.9501 6.07512L67.3876 12.3251C67.8092 13.4247 68.569 14.3621 69.5574 15.0022C70.5457 15.6424 71.7117 15.9524 72.8876 15.8877L79.5876 15.5002C80.4406 15.4541 81.2927 15.6043 82.0786 15.9391C82.8646 16.2739 83.5632 16.7844 84.121 17.4316C84.6786 18.0786 85.0806 18.8449 85.2959 19.6716C85.5111 20.4982 85.534 21.3632 85.3626 22.2002L84.0251 28.8252C83.7904 29.9816 83.9261 31.1827 84.4131 32.2576C84.9001 33.3324 85.7134 34.2264 86.7376 34.8127L92.5876 38.1377C93.3257 38.5626 93.9576 39.1498 94.4351 39.8551C94.9126 40.5603 95.2234 41.3651 95.3439 42.2082C95.4644 43.0513 95.3912 43.9108 95.1304 44.7216C94.8694 45.5323 94.4272 46.2731 93.8376 46.8877L89.1626 51.7377C88.3409 52.5863 87.8077 53.6728 87.6395 54.8421C87.4711 56.0114 87.6761 57.2041 88.2251 58.2502L91.3626 64.2252C91.7615 64.9812 91.982 65.8184 92.0072 66.6729C92.0325 67.5273 91.8619 68.3762 91.5084 69.1544C91.1547 69.9327 90.6277 70.6197 89.9676 71.1628C89.3076 71.7059 88.5319 72.0907 87.7001 72.2877L81.1626 73.8252C80.01 74.0938 78.9736 74.7239 78.2045 75.6234C77.4354 76.5229 76.974 77.6448 76.8876 78.8252L76.3126 85.5502C76.2451 86.4013 75.9826 87.2256 75.5452 87.9591C75.108 88.6924 74.5077 89.3153 73.791 89.7796C73.0742 90.2437 72.2602 90.5366 71.4121 90.6354C70.564 90.7344 69.7045 90.6368 68.9001 90.3502L62.5751 88.0752C61.4536 87.6772 60.234 87.6494 59.0956 87.9959C57.9571 88.3424 56.9597 89.0449 56.2501 90.0002L52.1501 95.3502C51.6325 96.0172 50.9692 96.5572 50.2109 96.9286C49.4526 97.2999 48.6195 97.4931 47.7751 97.4931C46.9307 97.4931 46.0976 97.2999 45.3392 96.9286C44.581 96.5572 43.9177 96.0172 43.4001 95.3502L39.3001 90.0002C38.5854 89.0736 37.5966 88.3959 36.4745 88.0638C35.3524 87.7317 34.1541 87.7618 33.0501 88.1502L26.7251 90.4251C25.9207 90.7118 25.0612 90.8094 24.2131 90.7104C23.365 90.6116 22.551 90.3187 21.8342 89.8546C21.1175 89.3903 20.5172 88.7674 20.08 88.0341C19.6426 87.3006 19.3801 86.4763 19.3126 85.6252L18.7501 78.8627C18.6619 77.6829 18.1997 76.5621 17.431 75.6629C16.6622 74.7638 15.6267 74.1332 14.4751 73.8627L7.9001 72.3502C7.06694 72.1554 6.28964 71.7719 5.62812 71.2292C4.96661 70.6866 4.43856 69.9992 4.08467 69.2202C3.73079 68.4412 3.56056 67.5913 3.58707 66.7362C3.61358 65.8809 3.83616 65.0432 4.23762 64.2877L7.36261 58.3127C7.91324 57.2678 8.12024 56.0759 7.95417 54.9067C7.78809 53.7374 7.25739 52.6503 6.43761 51.8002L1.76261 46.9502C1.17294 46.3356 0.730872 45.5948 0.469903 44.7841C0.208934 43.9733 0.135909 43.1138 0.256361 42.2707C0.376811 41.4276 0.687578 40.6228 1.16512 39.9176C1.64266 39.2123 2.27444 38.6251 3.01262 38.2002L8.86261 34.8752C9.88679 34.2889 10.7002 33.3949 11.1871 32.3201C11.6741 31.2452 11.8098 30.0441 11.5751 28.8877L10.2376 22.2627C10.0663 21.4257 10.0891 20.5607 10.3044 19.7341C10.5196 18.9074 10.9216 18.1411 11.4793 17.4941C12.037 16.8469 12.7356 16.3364 13.5215 16.0016C14.3074 15.6668 15.1596 15.5166 16.0126 15.5627L22.7126 15.9502C23.8885 16.0149 25.0545 15.7049 26.0429 15.0648C27.0312 14.4246 27.791 13.4872 28.2126 12.3876L30.6501 6.13762C30.953 5.34026 31.436 4.62365 32.0614 4.04367C32.6869 3.4637 33.4377 3.03604 34.2557 2.79405C35.0736 2.55206 35.9364 2.5023 36.7767 2.64862C37.617 2.79495 38.4121 3.13341 39.1001 3.63762L44.5251 7.50012C45.4757 8.19494 46.6226 8.5694 47.8001 8.5694C48.9776 8.5694 50.1245 8.19494 51.0751 7.50012Z" fill="#48A4FB"/>
<path d="M49.7499 77.8376C65.9319 77.8376 79.0499 64.7196 79.0499 48.5376C79.0499 32.3557 65.9319 19.2375 49.7499 19.2375C33.5679 19.2375 20.45 32.3557 20.45 48.5376C20.45 64.7196 33.5679 77.8376 49.7499 77.8376Z" fill="white"/>
<path d="M24.8499 48.5376C24.8513 41.1497 27.6448 34.0353 32.6706 28.6202C37.6962 23.205 44.5827 19.8894 51.95 19.3375C51.225 19.3375 50.5 19.2375 49.75 19.2375C41.9791 19.2375 34.5266 22.3245 29.0317 27.8193C23.537 33.3142 20.45 40.7667 20.45 48.5376C20.45 56.3084 23.537 63.7609 29.0317 69.2558C34.5266 74.7506 41.9791 77.8376 49.75 77.8376C50.5 77.8376 51.225 77.7751 51.95 77.7251C44.5838 77.1763 37.6973 73.8632 32.6715 68.4502C27.6455 63.0371 24.8516 55.9242 24.8499 48.5376Z" fill="#F1F1F1"/>
<path d="M40.05 43.025H36.95C36.2596 43.025 35.7 43.5848 35.7 44.275V61.3875C35.7 62.0779 36.2596 62.6375 36.95 62.6375H40.05C40.7403 62.6375 41.3 62.0779 41.3 61.3875V44.275C41.3 43.5848 40.7403 43.025 40.05 43.025Z" fill="#48A4FB"/>
<path d="M62.2126 43.0251H54.2626C54.0486 43.0208 53.8382 42.9681 53.6476 42.8707C53.4569 42.7733 53.2909 42.6338 53.162 42.4628C53.0333 42.2918 52.9449 42.0938 52.9039 41.8837C52.8628 41.6736 52.8701 41.4569 52.9251 41.2501L54.7251 35.7001C55.1369 34.8694 55.2023 33.9093 54.907 33.0306C54.6118 32.1517 53.9799 31.4259 53.1501 31.0126C49.6376 35.6001 42.9501 43.7251 42.9501 43.7251C42.7788 43.9382 42.6822 44.2017 42.675 44.4751V61.2501C42.7008 61.6458 42.8823 62.0154 43.1798 62.2778C43.4773 62.5402 43.8665 62.6739 44.2625 62.6501H60.7751C61.4643 62.6787 62.1434 62.4767 62.7049 62.0759C63.2664 61.6752 63.6782 61.0987 63.8751 60.4376L66.8626 48.1126C67.5001 45.4876 65.2376 43.0251 62.2126 43.0251Z" fill="#48A4FB"/>
<path d="M62.2125 43.025H56.4625C59.5 43.025 61.7625 45.525 61.125 48.1L58.1375 60.425C57.9352 61.0904 57.5169 61.6692 56.9486 62.0699C56.3802 62.4707 55.6946 62.6704 55 62.6375H60.75C61.4392 62.6663 62.1184 62.4643 62.6799 62.0635C63.2414 61.6628 63.6531 61.0863 63.85 60.425L66.8375 48.1C67.5 45.4875 65.2375 43.025 62.2125 43.025Z" fill="#62A2DE"/>
</svg>
