<svg width="100" height="100" viewBox="0 0 100 100" fill="none" xmlns="http://www.w3.org/2000/svg">
<g filter="url(#filter0_d_375_214)">
<path d="M90.8788 17.6605C90.5045 17.2633 90.046 16.9421 89.532 16.7171C89.018 16.4921 88.4596 16.3681 87.8917 16.3528C79.069 16.1385 67.9051 7.37035 60.524 3.92957C55.9646 1.81079 52.9545 0.413756 50.694 0.0457393C50.235 -0.0164214 49.7687 -0.0152174 49.3101 0.0493123C47.0496 0.417329 44.0395 1.81437 39.484 3.93314C32.1029 7.37035 20.939 16.1385 12.1162 16.3528C11.5479 16.3689 10.9892 16.4932 10.4747 16.7181C9.96026 16.9431 9.50098 17.2638 9.12535 17.6605C8.34677 18.4792 7.94507 19.5493 8.00665 20.6404C9.90191 56.4524 23.7223 78.6156 47.9723 91.4962C48.6027 91.8285 49.3024 92 49.9982 92C50.694 92 51.3937 91.8285 52.028 91.4962C76.278 78.6156 90.0945 56.4524 91.9936 20.6404C92.0588 19.5494 91.6581 18.4786 90.8788 17.6605ZM71.5956 31.7452L51.1323 59.811C50.398 60.8186 49.2447 61.4867 48.103 61.4867C46.9574 61.4867 45.6849 60.9043 44.8814 60.1576L30.4575 46.7482C29.9866 46.3089 29.7222 45.714 29.7222 45.0939C29.7222 44.4738 29.9866 43.8789 30.4575 43.4396L34.0212 40.1203C34.4949 39.6844 35.1345 39.4398 35.8011 39.4398C36.4677 39.4398 37.1074 39.6844 37.581 40.1203L46.9612 48.8384L63.2573 26.4822C63.6343 25.9706 64.2139 25.6185 64.8693 25.5027C65.5248 25.3869 66.2029 25.5168 66.7556 25.8641L70.9267 28.4938C71.4778 28.8437 71.8575 29.3821 71.9828 29.9913C72.1081 30.6005 71.9689 31.2311 71.5956 31.7452Z" fill="#48A4FB"/>
</g>
<defs>
<filter id="filter0_d_375_214" x="4.00049" y="0" width="92" height="100" filterUnits="userSpaceOnUse" color-interpolation-filters="sRGB">
<feFlood flood-opacity="0" result="BackgroundImageFix"/>
<feColorMatrix in="SourceAlpha" type="matrix" values="0 0 0 0 0 0 0 0 0 0 0 0 0 0 0 0 0 0 127 0" result="hardAlpha"/>
<feOffset dy="4"/>
<feGaussianBlur stdDeviation="2"/>
<feComposite in2="hardAlpha" operator="out"/>
<feColorMatrix type="matrix" values="0 0 0 0 0 0 0 0 0 0 0 0 0 0 0 0 0 0 0.25 0"/>
<feBlend mode="normal" in2="BackgroundImageFix" result="effect1_dropShadow_375_214"/>
<feBlend mode="normal" in="SourceGraphic" in2="effect1_dropShadow_375_214" result="shape"/>
</filter>
</defs>
</svg>
