<svg width="100" height="100" viewBox="0 0 100 100" fill="none" xmlns="http://www.w3.org/2000/svg">
<path d="M81.25 1.25H30C25.8579 1.25 22.5 4.60786 22.5 8.75V91.25C22.5 95.3921 25.8579 98.75 30 98.75H81.25C85.3921 98.75 88.75 95.3921 88.75 91.25V8.75C88.75 4.60786 85.3921 1.25 81.25 1.25Z" fill="#76AEE2"/>
<path d="M77.0375 1.25H18.75C14.6079 1.25 11.25 4.60786 11.25 8.75V91.25C11.25 95.3921 14.6079 98.75 18.75 98.75H77.0375C81.1796 98.75 84.5375 95.3921 84.5375 91.25V8.75C84.5375 4.60786 81.1796 1.25 77.0375 1.25Z" fill="#48A4FB"/>
<path d="M70 12.5H26.25C24.1789 12.5 22.5 14.1789 22.5 16.25V86.25C22.5 88.3211 24.1789 90 26.25 90H70C72.0711 90 73.75 88.3211 73.75 86.25V16.25C73.75 14.1789 72.0711 12.5 70 12.5Z" fill="white"/>
<path d="M26.0136 85.85V16.65C26.0333 15.5316 26.4957 14.4667 27.2995 13.6887C28.1032 12.9107 29.1827 12.4833 30.3011 12.5H26.0136C24.8951 12.4833 23.8157 12.9107 23.012 13.6887C22.2082 14.4667 21.7458 15.5316 21.7261 16.65V85.85C21.7458 86.9684 22.2082 88.0334 23.012 88.8112C23.8157 89.5892 24.8951 90.0167 26.0136 90H30.3011C29.1827 90.0167 28.1032 89.5892 27.2995 88.8112C26.4957 88.0334 26.0333 86.9684 26.0136 85.85Z" fill="#F1F1F1"/>
<path d="M66.875 21.6125H31.875C30.8395 21.6125 30 22.452 30 23.4875V24.025C30 25.0607 30.8395 25.9 31.875 25.9H66.875C67.9105 25.9 68.75 25.0607 68.75 24.025V23.4875C68.75 22.452 67.9105 21.6125 66.875 21.6125Z" fill="#5B8FBF"/>
<path d="M63.65 30.175H31.875C30.8395 30.175 30 31.0145 30 32.05V32.5875C30 33.623 30.8395 34.4625 31.875 34.4625H63.65C64.6855 34.4625 65.525 33.623 65.525 32.5875V32.05C65.525 31.0145 64.6855 30.175 63.65 30.175Z" fill="#5B8FBF"/>
<path d="M66.625 47.1375H31.875C30.8395 47.1375 30 47.9768 30 49.0125V49.55C30 50.5854 30.8395 51.4249 31.875 51.4249H66.625C67.6605 51.4249 68.5 50.5854 68.5 49.55V49.0125C68.5 47.9768 67.6605 47.1375 66.625 47.1375Z" fill="#5B8FBF"/>
<path d="M65.1375 55.7124H31.875C30.8395 55.7124 30 56.5519 30 57.5874V58.1249C30 59.1605 30.8395 59.9999 31.875 59.9999H65.1375C66.173 59.9999 67.0125 59.1605 67.0125 58.1249V57.5874C67.0125 56.5519 66.173 55.7124 65.1375 55.7124Z" fill="#5B8FBF"/>
<path d="M36.4625 68.5751H31.875C31.3778 68.5751 30.9008 68.3775 30.5491 68.0258C30.1975 67.6742 30 67.1973 30 66.7001V66.1626C30 65.6652 30.1975 65.1883 30.5491 64.8367C30.9008 64.4851 31.3778 64.2876 31.875 64.2876H54.6625C55.1598 64.2876 55.6368 64.4851 55.9884 64.8367C56.34 65.1883 56.5375 65.6652 56.5375 66.1626V66.7001C56.5375 67.1973 56.34 67.6742 55.9884 68.0258C55.6368 68.3775 55.1598 68.5751 54.6625 68.5751H36.4625Z" fill="#5B8FBF"/>
<path d="M96.875 94.9251L94.1875 87.9001C94.313 87.3083 94.3757 86.7049 94.375 86.1V79.1751C94.375 76.8544 93.4531 74.6288 91.8121 72.9878C90.1712 71.3469 87.9456 70.425 85.625 70.425H73.125C70.8044 70.425 68.5788 71.3469 66.9379 72.9878C65.2969 74.6288 64.375 76.8544 64.375 79.1751V86.1C64.375 88.4207 65.2969 90.6463 66.9379 92.2872C68.5788 93.9282 70.8044 94.85 73.125 94.85H85.625C87.074 94.8316 88.4957 94.4537 89.7625 93.7501L93.125 94.8751L96.875 94.9251Z" fill="#76AEE2"/>
<path d="M81.875 70.425H69.375C64.5425 70.425 60.625 74.3425 60.625 79.175V86.0876C60.625 90.9201 64.5425 94.8376 69.375 94.8376H81.875C86.7075 94.8376 90.625 90.9201 90.625 86.0876V79.175C90.625 74.3425 86.7075 70.425 81.875 70.425Z" fill="#5B8FBF"/>
<path d="M93.1256 94.925L89.9381 86.625L84.3506 93.5375L93.1256 94.925Z" fill="#5B8FBF"/>
<path d="M67.612 85.2751C68.9859 85.2751 70.0995 84.1613 70.0995 82.7876C70.0995 81.4137 68.9859 80.3 67.612 80.3C66.2383 80.3 65.1245 81.4137 65.1245 82.7876C65.1245 84.1613 66.2383 85.2751 67.612 85.2751Z" fill="white"/>
<path d="M75.3488 85.2751C76.7227 85.2751 77.8363 84.1613 77.8363 82.7876C77.8363 81.4137 76.7227 80.3 75.3488 80.3C73.9751 80.3 72.8613 81.4137 72.8613 82.7876C72.8613 84.1613 73.9751 85.2751 75.3488 85.2751Z" fill="white"/>
<path d="M83.1003 85.2751C84.4741 85.2751 85.5878 84.1613 85.5878 82.7876C85.5878 81.4137 84.4741 80.3 83.1003 80.3C81.7264 80.3 80.6128 81.4137 80.6128 82.7876C80.6128 84.1613 81.7264 85.2751 83.1003 85.2751Z" fill="white"/>
</svg>
