<svg width="110" height="54" viewBox="0 0 110 54" fill="none" xmlns="http://www.w3.org/2000/svg">
<g clip-path="url(#clip0_537_2)">
<path d="M93.0007 5.57052C97.0099 21.4409 94.8502 39.0214 71.8684 48.2126C50.8851 56.6045 24.0621 50.5905 20.0528 34.7202C16.0436 18.8498 30.5241 20.3738 46.2228 16.3746C61.9216 12.3754 88.9915 -10.2999 93.0007 5.57052Z" fill="#F1F1F1"/>
<path d="M44.0298 48.9696H41.5521C41.0574 48.9696 40.6562 49.3707 40.6562 49.8654V50.2084C40.6562 50.7032 41.0574 51.1042 41.5521 51.1042H44.0298C44.5245 51.1042 44.9255 50.7032 44.9255 50.2084V49.8654C44.9255 49.3707 44.5245 48.9696 44.0298 48.9696Z" fill="#4177A9"/>
<path d="M70.7133 48.9696H68.2356C67.7409 48.9696 67.3398 49.3707 67.3398 49.8654V50.2084C67.3398 50.7032 67.7409 51.1042 68.2356 51.1042H70.7133C71.208 51.1042 71.6091 50.7032 71.6091 50.2084V49.8654C71.6091 49.3707 71.208 48.9696 70.7133 48.9696Z" fill="#4177A9"/>
<path d="M77.1175 48.9696H74.6398C74.1451 48.9696 73.7441 49.3707 73.7441 49.8654V50.2084C73.7441 50.7032 74.1451 51.1042 74.6398 51.1042H77.1175C77.6122 51.1042 78.0133 50.7032 78.0133 50.2084V49.8654C78.0133 49.3707 77.6122 48.9696 77.1175 48.9696Z" fill="#4177A9"/>
<path d="M77.1626 2.49915H39.3723C37.724 2.49915 36.3877 3.83541 36.3877 5.48378V47.0523C36.3877 48.7007 37.724 50.037 39.3723 50.037H77.1626C78.811 50.037 80.1472 48.7007 80.1472 47.0523V5.48378C80.1472 3.83541 78.811 2.49915 77.1626 2.49915Z" fill="#62A2DE"/>
<path d="M71.8261 2.49915H39.3723C37.724 2.49915 36.3877 3.83541 36.3877 5.48378V47.0627C36.3877 48.711 37.724 50.0473 39.3723 50.0473H71.8261C73.4744 50.0473 74.8107 48.711 74.8107 47.0627V5.48378C74.8107 3.83541 73.4744 2.49915 71.8261 2.49915Z" fill="#40A3FF"/>
<path d="M74.8107 10.5466H36.3877V11.6139H74.8107V10.5466Z" fill="#FFF6EE"/>
<path d="M74.8107 42.5658H36.3877V43.6331H74.8107V42.5658Z" fill="white"/>
<path d="M43.2395 13.7485H42.0006C41.7533 13.7485 41.5527 13.9491 41.5527 14.1964V16.5026C41.5527 16.7499 41.7533 16.9505 42.0006 16.9505H43.2395C43.4868 16.9505 43.6873 16.7499 43.6873 16.5026V14.1964C43.6873 13.9491 43.4868 13.7485 43.2395 13.7485Z" fill="#645959"/>
<path d="M70.1125 13.7485H68.8737C68.6263 13.7485 68.4258 13.9491 68.4258 14.1964V16.5026C68.4258 16.7499 68.6263 16.9505 68.8737 16.9505H70.1125C70.3599 16.9505 70.5604 16.7499 70.5604 16.5026V14.1964C70.5604 13.9491 70.3599 13.7485 70.1125 13.7485Z" fill="#62A2DE"/>
<path d="M43.6875 19.2565H67.5117C67.9868 19.2565 68.4425 19.4452 68.7785 19.7812C69.1145 20.1172 69.3032 20.5728 69.3032 21.048V37.4005C69.3032 37.8758 69.1144 38.3316 68.7783 38.6676C68.4423 39.0037 67.9865 39.1925 67.5112 39.1925H43.687C43.2119 39.1925 42.7562 39.0038 42.4202 38.6678C42.0843 38.3318 41.8955 37.8761 41.8955 37.401V21.0485C41.8955 20.5732 42.0843 20.1174 42.4204 19.7813C42.7564 19.4453 43.2122 19.2565 43.6875 19.2565Z" fill="white"/>
<path d="M67.5111 20.1524C67.6288 20.1524 67.7453 20.1756 67.8539 20.2206C67.9626 20.2656 68.0614 20.3316 68.1446 20.4148C68.2277 20.4979 68.2937 20.5967 68.3387 20.7054C68.3837 20.814 68.4069 20.9305 68.4069 21.0482V37.4008C68.4069 37.6384 68.3125 37.8662 68.1446 38.0342C67.9766 38.2022 67.7487 38.2966 67.5111 38.2966H43.6874C43.4498 38.2966 43.2219 38.2022 43.054 38.0342C42.886 37.8662 42.7916 37.6384 42.7916 37.4008V21.0482C42.7916 20.8106 42.886 20.5827 43.054 20.4148C43.2219 20.2468 43.4498 20.1524 43.6874 20.1524H67.5111ZM67.5111 18.3608H43.6874C42.9749 18.3616 42.2918 18.645 41.788 19.1488C41.2842 19.6526 41.0008 20.3357 41 21.0482V37.4008C41.0008 38.1133 41.2842 38.7963 41.788 39.3001C42.2918 39.8039 42.9748 40.0873 43.6873 40.0881H67.5111C68.2236 40.0873 68.9067 39.8039 69.4105 39.3001C69.9143 38.7963 70.1977 38.1133 70.1985 37.4008V21.0482C70.1977 20.3357 69.9143 19.6526 69.4105 19.1488C68.9067 18.645 68.2236 18.3616 67.5111 18.3608Z" fill="#495379"/>
<path d="M44.5825 22.8397C44.5825 22.6021 44.6769 22.3743 44.8449 22.2063C45.0129 22.0383 45.2407 21.9439 45.4783 21.9439H68.4063V21.0481C68.4063 20.9305 68.3832 20.814 68.3382 20.7053C68.2932 20.5966 68.2272 20.4979 68.144 20.4147C68.0608 20.3315 67.9621 20.2655 67.8534 20.2205C67.7447 20.1755 67.6282 20.1523 67.5106 20.1523H43.6868C43.4492 20.1523 43.2214 20.2467 43.0534 20.4147C42.8854 20.5827 42.791 20.8106 42.791 21.0481V37.4008C42.791 37.6383 42.8854 37.8662 43.0534 38.0342C43.2214 38.2021 43.4492 38.2965 43.6868 38.2965H44.5825V22.8397Z" fill="#F1F1F1"/>
<path d="M69.0257 14.4537H42.1715C41.9241 14.4537 41.7236 14.6543 41.7236 14.9016V15.7974C41.7236 16.0448 41.9241 16.2453 42.1715 16.2453H69.0257C69.273 16.2453 69.4736 16.0448 69.4736 15.7974V14.9016C69.4736 14.6543 69.273 14.4537 69.0257 14.4537Z" fill="#495379"/>
<path d="M68.4063 25.4889H42.791V26.5562H68.4063V25.4889Z" fill="#F1F1F1"/>
<path d="M68.4063 31.8927H42.791V32.96H68.4063V31.8927Z" fill="#F1F1F1"/>
<path d="M75.3375 0.940918H45.4679C45.1691 0.940918 44.9268 1.18321 44.9268 1.4821V1.95797C44.9268 2.25685 45.1691 2.49915 45.4679 2.49915H75.3375C75.6363 2.49915 75.8786 2.25685 75.8786 1.95797V1.4821C75.8786 1.18321 75.6363 0.940918 75.3375 0.940918Z" fill="#495379"/>
<path d="M71.0678 0.940918H40.131C39.8321 0.940918 39.5898 1.18321 39.5898 1.4821V1.95797C39.5898 2.25685 39.8321 2.49915 40.131 2.49915H71.0678C71.3667 2.49915 71.609 2.25685 71.609 1.95797V1.4821C71.609 1.18321 71.3667 0.940918 71.0678 0.940918Z" fill="#4177A9"/>
<path d="M69.1975 13.7485H67.9586C67.7113 13.7485 67.5107 13.9491 67.5107 14.1964V16.5026C67.5107 16.7499 67.7113 16.9505 67.9586 16.9505H69.1975C69.4448 16.9505 69.6453 16.7499 69.6453 16.5026V14.1964C69.6453 13.9491 69.4448 13.7485 69.1975 13.7485Z" fill="#495379"/>
<path d="M42.343 13.7485H41.1041C40.8568 13.7485 40.6562 13.9491 40.6562 14.1964V16.5026C40.6562 16.7499 40.8568 16.9505 41.1041 16.9505H42.343C42.5903 16.9505 42.791 16.7499 42.791 16.5026V14.1964C42.791 13.9491 42.5903 13.7485 42.343 13.7485Z" fill="#495379"/>
<path d="M44.7489 5.21003H44.3467V8.41196H44.7489C45.1735 8.41196 45.5807 8.24328 45.8809 7.94304C46.1812 7.64279 46.3499 7.23557 46.3499 6.81096C46.3499 6.38635 46.1812 5.97913 45.8809 5.67888C45.5807 5.37864 45.1735 5.20996 44.7489 5.20996V5.21003Z" fill="#495379"/>
<path d="M50.0643 5.21003H49.6621V8.41196H50.0643C50.4889 8.41196 50.8961 8.24328 51.1964 7.94304C51.4966 7.64279 51.6653 7.23557 51.6653 6.81096C51.6653 6.38635 51.4966 5.97913 51.1964 5.67888C50.8961 5.37864 50.4889 5.20996 50.0643 5.20996V5.21003Z" fill="#495379"/>
<path d="M55.4022 5.21003H55V8.41196H55.4022C55.8268 8.41196 56.234 8.24328 56.5343 7.94304C56.8345 7.64279 57.0032 7.23557 57.0032 6.81096C57.0032 6.38635 56.8345 5.97913 56.5343 5.67888C56.234 5.37864 55.8268 5.20996 55.4022 5.20996V5.21003Z" fill="#495379"/>
<path d="M60.6825 5.21003H60.2803V8.41196H60.6825C61.1071 8.41196 61.5143 8.24328 61.8145 7.94304C62.1148 7.64279 62.2835 7.23557 62.2835 6.81096C62.2835 6.38635 62.1148 5.97913 61.8145 5.67888C61.5143 5.37864 61.1071 5.20996 60.6825 5.20996V5.21003Z" fill="#495379"/>
<path d="M66.1414 5.21003H65.7393V8.41196H66.1414C66.5661 8.41196 66.9733 8.24328 67.2735 7.94304C67.5738 7.64279 67.7424 7.23557 67.7424 6.81096C67.7424 6.38635 67.5738 5.97913 67.2735 5.67888C66.9733 5.37864 66.5661 5.20996 66.1414 5.20996V5.21003Z" fill="#495379"/>
<path d="M44.392 8.412C45.2761 8.412 45.9929 7.69523 45.9929 6.81104C45.9929 5.92686 45.2761 5.21008 44.392 5.21008C43.5078 5.21008 42.791 5.92686 42.791 6.81104C42.791 7.69523 43.5078 8.412 44.392 8.412Z" fill="white"/>
<path d="M49.7289 8.412C50.6131 8.412 51.3298 7.69523 51.3298 6.81104C51.3298 5.92686 50.6131 5.21008 49.7289 5.21008C48.8447 5.21008 48.1279 5.92686 48.1279 6.81104C48.1279 7.69523 48.8447 8.412 49.7289 8.412Z" fill="white"/>
<path d="M55.0658 8.412C55.95 8.412 56.6668 7.69523 56.6668 6.81104C56.6668 5.92686 55.95 5.21008 55.0658 5.21008C54.1816 5.21008 53.4648 5.92686 53.4648 6.81104C53.4648 7.69523 54.1816 8.412 55.0658 8.412Z" fill="white"/>
<path d="M60.4027 8.412C61.2869 8.412 62.0037 7.69523 62.0037 6.81104C62.0037 5.92686 61.2869 5.21008 60.4027 5.21008C59.5185 5.21008 58.8018 5.92686 58.8018 6.81104C58.8018 7.69523 59.5185 8.412 60.4027 8.412Z" fill="white"/>
<path d="M65.7387 8.412C66.6228 8.412 67.3396 7.69523 67.3396 6.81104C67.3396 5.92686 66.6228 5.21008 65.7387 5.21008C64.8545 5.21008 64.1377 5.92686 64.1377 6.81104C64.1377 7.69523 64.8545 8.412 65.7387 8.412Z" fill="white"/>
</g>
<defs>
<clipPath id="clip0_537_2">
<rect width="110" height="54" fill="white"/>
</clipPath>
</defs>
</svg>
