<svg width="110" height="53" viewBox="0 0 110 53" fill="none" xmlns="http://www.w3.org/2000/svg">
<path d="M89.8014 5.88022C93.677 21.2085 91.5893 38.1884 69.3732 47.0657C49.0891 55.171 23.1599 49.3624 19.2842 34.0341C15.4086 18.7059 29.4065 20.1779 44.5822 16.3153C59.7579 12.4526 85.9258 -9.44803 89.8014 5.88022Z" fill="#F1F1F1"/>
<path d="M58.4594 52.4599C65.2313 52.4599 71.7258 49.7698 76.5143 44.9814C81.3027 40.1929 83.9929 33.6984 83.9929 26.9265C83.9929 20.1546 81.3027 13.6601 76.5143 8.87164C71.7258 4.08319 65.2313 1.39307 58.4594 1.39307H55.627V52.4784L58.4594 52.4599Z" fill="#62A2DE"/>
<path d="M56.4631 52.5C70.5649 52.5 81.9966 41.0594 81.9966 26.9466C81.9966 12.8338 70.5649 1.39319 56.4631 1.39319C42.3614 1.39319 30.9297 12.8338 30.9297 26.9466C30.9297 41.0594 42.3614 52.5 56.4631 52.5Z" fill="#40A3FF"/>
<path d="M56.4634 48.1049C68.1598 48.1049 77.6416 38.623 77.6416 26.9266C77.6416 15.2302 68.1598 5.74841 56.4634 5.74841C44.767 5.74841 35.2852 15.2302 35.2852 26.9266C35.2852 38.623 44.767 48.1049 56.4634 48.1049Z" fill="white"/>
<path d="M56.4625 5.74841C56.7935 5.74841 57.1223 5.7583 57.4495 5.77334C52.0096 6.02667 46.8765 8.36595 43.1164 12.3052C39.3563 16.2445 37.2584 21.4809 37.2584 26.9266C37.2584 32.3724 39.3563 37.6088 43.1164 41.548C46.8765 45.4873 52.0096 47.8266 57.4495 48.0799C57.1223 48.0949 56.7936 48.1048 56.4625 48.1048C50.8482 48.101 45.4652 45.868 41.4966 41.8967C37.5281 37.9255 35.2988 32.5409 35.2988 26.9266C35.2988 21.3123 37.5281 15.9278 41.4966 11.9565C45.4652 7.98524 50.8482 5.75227 56.4625 5.74841Z" fill="#62A2DE"/>
<path d="M56.8031 29.2443C58.0831 29.2443 59.1208 28.2066 59.1208 26.9266C59.1208 25.6466 58.0831 24.6089 56.8031 24.6089C55.523 24.6089 54.4854 25.6466 54.4854 26.9266C54.4854 28.2066 55.523 29.2443 56.8031 29.2443Z" fill="#495379"/>
<path d="M57.8413 26.7953C57.5257 26.4798 57.0141 26.4798 56.6985 26.7953C56.383 27.1109 56.383 27.6225 56.6985 27.9381L63.1937 34.4333C63.5093 34.7488 64.0209 34.7488 64.3365 34.4333C64.652 34.1177 64.652 33.6061 64.3365 33.2905L57.8413 26.7953Z" fill="#495379"/>
<path d="M57.6111 42.297C57.6111 41.9799 57.3541 41.7229 57.037 41.7229C56.7199 41.7229 56.4629 41.9799 56.4629 42.297V45.167C56.4629 45.484 56.7199 45.7411 57.037 45.7411C57.3541 45.7411 57.6111 45.484 57.6111 45.167V42.297Z" fill="#40A3FF"/>
<path d="M57.6111 8.59291C57.6111 8.27584 57.3541 8.0188 57.037 8.0188C56.7199 8.0188 56.4629 8.27584 56.4629 8.59291V11.4628C56.4629 11.7799 56.7199 12.037 57.037 12.037C57.3541 12.037 57.6111 11.7799 57.6111 11.4628V8.59291Z" fill="#40A3FF"/>
<path d="M42.2214 27.5099C42.5385 27.5099 42.7955 27.2529 42.7955 26.9358C42.7955 26.6187 42.5385 26.3617 42.2214 26.3617H39.3514C39.0344 26.3617 38.7773 26.6187 38.7773 26.9358C38.7773 27.2529 39.0344 27.5099 39.3514 27.5099H42.2214Z" fill="#40A3FF"/>
<path d="M75.0905 27.5099C75.4076 27.5099 75.6647 27.2529 75.6647 26.9358C75.6647 26.6187 75.4076 26.3617 75.0905 26.3617H72.2206C71.9035 26.3617 71.6465 26.6187 71.6465 26.9358C71.6465 27.2529 71.9035 27.5099 72.2206 27.5099H75.0905Z" fill="#40A3FF"/>
<path d="M43.6513 20.3565C43.9266 20.5137 44.2773 20.4179 44.4345 20.1425C44.5916 19.8672 44.4958 19.5165 44.2204 19.3593L41.7279 17.9366C41.4526 17.7795 41.1019 17.8753 40.9447 18.1507C40.7876 18.426 40.8834 18.7767 41.1588 18.9339L43.6513 20.3565Z" fill="#40A3FF"/>
<path d="M72.1971 36.6501C72.4725 36.8073 72.8232 36.7115 72.9803 36.4361C73.1375 36.1607 73.0417 35.8101 72.7663 35.6529L70.2739 34.2302C69.9985 34.073 69.6478 34.1688 69.4906 34.4442C69.3335 34.7196 69.4293 35.0702 69.7047 35.2274L72.1971 36.6501Z" fill="#40A3FF"/>
<path d="M48.236 14.6109C48.4069 14.8779 48.7619 14.9559 49.029 14.785C49.2961 14.6141 49.3741 14.2591 49.2032 13.992L47.6564 11.5746C47.4855 11.3075 47.1304 11.2295 46.8634 11.4004C46.5963 11.5713 46.5183 11.9264 46.6892 12.1934L48.236 14.6109Z" fill="#40A3FF"/>
<path d="M65.9509 42.297C66.1218 42.5641 66.4769 42.6421 66.744 42.4712C67.011 42.3003 67.089 41.9452 66.9181 41.6782L65.3713 39.2607C65.2004 38.9937 64.8454 38.9157 64.5783 39.0866C64.3112 39.2575 64.2332 39.6125 64.4041 39.8796L65.9509 42.297Z" fill="#40A3FF"/>
<path d="M73.0602 18.8749C73.3356 18.7178 73.4314 18.3671 73.2742 18.0917C73.1171 17.8164 72.7664 17.7206 72.491 17.8777L69.9985 19.3004C69.7232 19.4576 69.6274 19.8083 69.7845 20.0836C69.9417 20.359 70.2924 20.4548 70.5677 20.2976L73.0602 18.8749Z" fill="#40A3FF"/>
<path d="M44.5143 35.1685C44.7897 35.0113 44.8855 34.6607 44.7283 34.3853C44.5712 34.1099 44.2205 34.0141 43.9451 34.1713L41.4527 35.594C41.1773 35.7512 41.0815 36.1018 41.2386 36.3772C41.3958 36.6526 41.7465 36.7484 42.0218 36.5912L44.5143 35.1685Z" fill="#40A3FF"/>
<path d="M67.5294 12.1344C67.7003 11.8674 67.6223 11.5123 67.3553 11.3414C67.0882 11.1705 66.7331 11.2485 66.5622 11.5156L65.0154 13.933C64.8445 14.2001 64.9225 14.5551 65.1896 14.726C65.4567 14.8969 65.8117 14.8189 65.9826 14.5519L67.5294 12.1344Z" fill="#40A3FF"/>
<path d="M49.8146 39.8206C49.9855 39.5535 49.9075 39.1985 49.6404 39.0276C49.3733 38.8567 49.0183 38.9347 48.8474 39.2017L47.3006 41.6192C47.1297 41.8862 47.2077 42.2413 47.4748 42.4122C47.7418 42.5831 48.0969 42.5051 48.2678 42.238L49.8146 39.8206Z" fill="#40A3FF"/>
<path d="M56.8613 9.60498H56.7455C56.2993 9.60498 55.9375 9.96675 55.9375 10.413V25.1893C55.9375 25.6356 56.2993 25.9973 56.7455 25.9973H56.8613C57.3076 25.9973 57.6694 25.6356 57.6694 25.1893V10.413C57.6694 9.96675 57.3076 9.60498 56.8613 9.60498Z" fill="#495379"/>
</svg>
