<svg width="110" height="53" viewBox="0 0 110 53" fill="none" xmlns="http://www.w3.org/2000/svg">
<path d="M91.0324 6.07051C95.0451 21.9409 92.8835 39.5214 69.8817 48.7126C48.8802 57.1045 22.0339 51.0905 18.0212 35.2202C14.0085 19.3498 28.5015 20.8738 44.2139 16.8746C59.9263 12.8754 87.0196 -9.79988 91.0324 6.07051Z" fill="#F1F1F1"/>
<path d="M76.6983 25.7654L75.7754 19.7619L78.4361 19.3529C78.6858 19.3145 78.9405 19.3768 79.1441 19.5262C79.3478 19.6756 79.4838 19.8998 79.5222 20.1495L80.1556 24.2703C80.194 24.52 80.1317 24.7746 79.9823 24.9783C79.8329 25.182 79.6087 25.318 79.359 25.3563L76.6983 25.7654Z" fill="#495379"/>
<path d="M76.786 20.3016C76.7914 19.6193 76.5257 18.9629 76.0472 18.4765C75.5687 17.9902 74.9166 17.7138 74.2344 17.7081L43.4381 17.8378C42.6075 17.8448 41.7925 18.0641 41.0706 18.475C40.3488 18.8858 39.744 19.4745 39.3139 20.1851L30.623 34.3598L79.2147 34.1552L76.786 20.3016ZM67.1158 26.7075L46.2696 26.7953C45.8911 26.7958 45.5277 26.6464 45.2589 26.3799C44.9902 26.1134 44.8378 25.7513 44.8351 25.3728L44.8266 23.3707C44.8261 22.9922 44.9755 22.6288 45.242 22.36C45.5086 22.0912 45.8707 21.9388 46.2492 21.9361L67.0953 21.8484C67.4739 21.8479 67.8372 21.9972 68.106 22.2638C68.3748 22.5303 68.5272 22.8924 68.5298 23.2709L68.5383 25.273C68.5388 25.6515 68.3894 26.0149 68.1229 26.2836C67.8564 26.5524 67.4944 26.7048 67.1158 26.7075Z" fill="#40A3FF"/>
<path d="M20.7851 38.3334C20.7851 38.3334 17.8863 40.9384 15.2142 43.7762C15.0488 43.9597 14.9423 44.1885 14.9083 44.4332C14.8742 44.6778 14.9144 44.927 15.0234 45.1486C15.1325 45.3703 15.3055 45.5541 15.52 45.6764C15.7346 45.7987 15.9809 45.8539 16.2272 45.8348L78.0458 45.6141C78.6429 45.6571 79.233 45.463 79.6879 45.0739C80.1428 44.6848 80.426 44.1319 80.4759 43.5354L80.4348 35.2511C80.4069 34.9542 80.2633 34.6802 80.035 34.4882C79.8068 34.2962 79.5122 34.2017 79.2149 34.225L29.7492 34.4017C28.0632 34.3944 26.3945 34.7405 24.8505 35.4177C23.3065 36.0949 21.9216 37.0882 20.7851 38.3334Z" fill="#62A2DE"/>
<path d="M17.1465 41.794C16.5184 42.4191 15.86 43.0903 15.2143 43.7762C15.0489 43.9596 14.9423 44.1884 14.9083 44.4331C14.8742 44.6777 14.9143 44.927 15.0234 45.1486C15.1324 45.3702 15.3054 45.5541 15.52 45.6764C15.7346 45.7987 15.9809 45.8539 16.2272 45.8347L78.046 45.614C78.6431 45.657 79.2331 45.4629 79.688 45.0738C80.1429 44.6846 80.426 44.1318 80.4759 43.5353L80.4673 41.7939L17.1465 41.794Z" fill="#495379"/>
<path d="M78.4053 22.1462C81.2365 21.7764 84.0445 21.2465 86.8158 20.5591C89.6293 19.7207 92.5025 17.0266 89.8382 13.2256C87.174 9.42459 82.5644 8.34749 82.6838 4.63599" stroke="#495379" stroke-width="1.7931" stroke-miterlimit="10" stroke-linecap="round"/>
</svg>
