<svg width="87" height="42" viewBox="0 0 87 42" fill="none" xmlns="http://www.w3.org/2000/svg">
<path d="M71.0485 5.74622C74.1164 17.9035 72.4638 31.3709 54.8779 38.4117C38.8212 44.8402 18.2961 40.2332 15.2281 28.076C12.1602 15.9187 23.2408 17.0861 35.2536 14.0226C47.2664 10.9591 67.9806 -6.41111 71.0485 5.74622Z" fill="#F1F1F1"/>
<path d="M27.6187 0H43V39H27V0.698151C27 0.51299 27.0652 0.335412 27.1812 0.204484C27.2972 0.073555 27.4546 0 27.6187 0Z" fill="#40A3FF"/>
<path d="M41 2H29V34H41V2Z" fill="white"/>
<path d="M43 0H59.502C59.6341 0 59.7608 0.073555 59.8541 0.204484C59.9475 0.335412 60 0.51299 60 0.698151V39H43V0Z" fill="#40A3FF"/>
<path d="M58 2H43V21H58V2Z" fill="white"/>
<path d="M38.4818 18.8687H38.4137C37.8681 18.8687 37.4258 19.3118 37.4258 19.8585V19.9267C37.4258 20.4734 37.8681 20.9166 38.4137 20.9166H38.4818C39.0274 20.9166 39.4697 20.4734 39.4697 19.9267V19.8585C39.4697 19.3118 39.0274 18.8687 38.4818 18.8687Z" fill="#40A3FF"/>
<path d="M25 37H62V39.42C62 39.5738 61.9382 39.7213 61.8283 39.8301C61.7183 39.9389 61.5692 40 61.4137 40H25.5863C25.4308 40 25.2817 39.9389 25.1717 39.8301C25.0618 39.7213 25 39.5738 25 39.42V37Z" fill="#40A3FF"/>
<path d="M61 40H26V41H61V40Z" fill="#495379"/>
<path d="M25.5863 35H61.4137C61.5692 35 61.7183 35.0679 61.8283 35.1888C61.9382 35.3096 62 35.4735 62 35.6444V37H25V35.6444C25 35.4735 25.0618 35.3096 25.1717 35.1888C25.2817 35.0679 25.4308 35 25.5863 35Z" fill="#495379"/>
<path d="M61.4137 24H25.5863C25.2625 24 25 24.4328 25 24.9667V25.0333C25 25.5672 25.2625 26 25.5863 26H61.4137C61.7375 26 62 25.5672 62 25.0333V24.9667C62 24.4328 61.7375 24 61.4137 24Z" fill="#495379"/>
<path d="M61.7019 29H25.2981C25.1334 29 25 29.2164 25 29.4833V30.5167C25 30.7836 25.1334 31 25.2981 31H61.7019C61.8666 31 62 30.7836 62 30.5167V29.4833C62 29.2164 61.8666 29 61.7019 29Z" fill="#495379"/>
<path d="M29.4182 25H28V35.9528H29.4182V25Z" fill="#495379"/>
<path d="M34.6369 25.4473H33.2188V36.4001H34.6369V25.4473Z" fill="#495379"/>
<path d="M39.6369 25H38.2188V35.9528H39.6369V25Z" fill="#495379"/>
<path d="M44.6369 25H43.2188V35.9528H44.6369V25Z" fill="#495379"/>
<path d="M49.6369 25H48.2188V35.9528H49.6369V25Z" fill="#495379"/>
<path d="M54.6369 25H53.2188V35.9528H54.6369V25Z" fill="#495379"/>
<path d="M59.6369 25H58.2188V35.9528H59.6369V25Z" fill="#495379"/>
<path d="M59.4387 21H42.5613C42.2513 21 42 21.2885 42 21.6444V22.3556C42 22.7115 42.2513 23 42.5613 23H59.4387C59.7487 23 60 22.7115 60 22.3556V21.6444C60 21.2885 59.7487 21 59.4387 21Z" fill="#1E82E1"/>
</svg>
