<svg width="87" height="42" viewBox="0 0 87 42" fill="none" xmlns="http://www.w3.org/2000/svg">
<path d="M71.0485 5.984C74.1164 18.1413 72.4638 31.6086 54.8779 38.6495C38.8212 45.078 18.2961 40.471 15.2281 28.3137C12.1602 16.1565 23.2408 17.3239 35.2536 14.2604C47.2664 11.1969 67.9806 -6.17332 71.0485 5.984Z" fill="#F1F1F1"/>
<path d="M63 2H60V39H63V2Z" fill="#40A3FF"/>
<path d="M31 2H27V38H31V2Z" fill="#40A3FF"/>
<path d="M60 4H30V39H60V4Z" fill="white"/>
<path fill-rule="evenodd" clip-rule="evenodd" d="M29 2H61V39H29V2ZM31 4V37H59V4H31Z" fill="#495379"/>
<path fill-rule="evenodd" clip-rule="evenodd" d="M35 38.215V3H36.7333V38.215H35Z" fill="#495379"/>
<path fill-rule="evenodd" clip-rule="evenodd" d="M44 38.1511V2.93604H45.7333V38.1511H44Z" fill="#495379"/>
<path fill-rule="evenodd" clip-rule="evenodd" d="M53 38.1511V2.93604H54.7333V38.1511H53Z" fill="#495379"/>
<path d="M59.9824 3.24512L60.1443 38.8418" stroke="#495379" stroke-width="1.73333" stroke-miterlimit="10"/>
<path d="M63.4274 37H26.5726C26.2564 37 26 37.2672 26 37.5967V39.4033C26 39.7328 26.2564 40 26.5726 40H63.4274C63.7436 40 64 39.7328 64 39.4033V37.5967C64 37.2672 63.7436 37 63.4274 37Z" fill="#40A3FF"/>
<path d="M63 40H27V41H63V40Z" fill="#495379"/>
<path d="M27.5968 0H62.4032C62.5615 0 62.7133 0.0523926 62.8252 0.145652C62.9371 0.238912 63 0.365399 63 0.497287V2H27V0.497287C27 0.365399 27.0629 0.238912 27.1748 0.145652C27.2867 0.0523926 27.4385 0 27.5968 0Z" fill="#40A3FF"/>
<path fill-rule="evenodd" clip-rule="evenodd" d="M61 12H30V10H61V12Z" fill="#495379"/>
<path fill-rule="evenodd" clip-rule="evenodd" d="M30.3189 30.9475C30.319 30.9475 30.3192 30.9474 29.9992 30C29.6792 29.0526 29.6794 29.0525 29.6797 29.0524L29.682 29.0516L29.687 29.05L29.7034 29.0445L29.762 29.0255C29.8124 29.0093 29.8853 28.9863 29.9801 28.9574C30.1698 28.8997 30.447 28.8185 30.8065 28.7218C31.5252 28.5285 32.5731 28.2728 33.9068 28.0178C36.5735 27.5079 40.387 27 44.9992 27C49.6114 27 53.4249 27.5079 56.0916 28.0178C57.4253 28.2728 58.4732 28.5285 59.192 28.7218C59.5514 28.8185 59.8287 28.8997 60.0183 28.9574C60.1131 28.9863 60.1861 29.0093 60.2364 29.0255L60.295 29.0445L60.3114 29.05L60.3164 29.0516L60.3181 29.0522C60.3184 29.0523 60.3192 29.0526 59.9992 30C59.6792 30.9474 59.6794 30.9475 59.6796 30.9475L59.6783 30.9471L59.6689 30.944L59.6246 30.9296C59.5838 30.9165 59.5206 30.8965 59.4358 30.8707C59.2662 30.8191 59.0099 30.744 58.6724 30.6532C57.9973 30.4715 56.9975 30.2272 55.716 29.9822C53.1525 29.4921 49.466 29 44.9992 29C40.5325 29 36.846 29.4921 34.2824 29.9822C33.001 30.2272 32.0012 30.4715 31.326 30.6532C30.9885 30.744 30.7322 30.8191 30.5626 30.8707C30.4778 30.8965 30.4147 30.9165 30.3739 30.9296L30.3295 30.944L30.3201 30.9471L30.3189 30.9475ZM30.3189 30.9475C30.3188 30.9476 30.3188 30.9476 30.3189 30.9475V30.9475Z" fill="#495379"/>
<path fill-rule="evenodd" clip-rule="evenodd" d="M30.3189 21.9475C30.319 21.9475 30.3192 21.9474 29.9992 21C29.6792 20.0526 29.6794 20.0525 29.6797 20.0524L29.682 20.0516L29.687 20.05L29.7034 20.0445L29.762 20.0255C29.8124 20.0093 29.8853 19.9863 29.9801 19.9574C30.1698 19.8997 30.447 19.8185 30.8065 19.7218C31.5252 19.5285 32.5731 19.2728 33.9068 19.0178C36.5735 18.5079 40.387 18 44.9992 18C49.6114 18 53.4249 18.5079 56.0916 19.0178C57.4253 19.2728 58.4732 19.5285 59.192 19.7218C59.5514 19.8185 59.8287 19.8997 60.0183 19.9574C60.1131 19.9863 60.1861 20.0093 60.2364 20.0255L60.295 20.0445L60.3114 20.05L60.3164 20.0516L60.3181 20.0522C60.3184 20.0523 60.3192 20.0526 59.9992 21C59.6792 21.9474 59.6794 21.9475 59.6796 21.9475L59.6783 21.9471L59.6689 21.944L59.6246 21.9296C59.5838 21.9165 59.5206 21.8965 59.4358 21.8707C59.2662 21.8191 59.0099 21.744 58.6724 21.6532C57.9973 21.4715 56.9975 21.2272 55.716 20.9822C53.1525 20.4921 49.466 20 44.9992 20C40.5325 20 36.846 20.4921 34.2824 20.9822C33.001 21.2272 32.0012 21.4715 31.326 21.6532C30.9885 21.744 30.7322 21.8191 30.5626 21.8707C30.4778 21.8965 30.4147 21.9165 30.3739 21.9296L30.3295 21.944L30.3201 21.9471L30.3189 21.9475ZM30.3189 21.9475C30.3188 21.9476 30.3188 21.9476 30.3189 21.9475V21.9475Z" fill="#495379"/>
</svg>
