<svg width="110" height="53" viewBox="0 0 110 53" fill="none" xmlns="http://www.w3.org/2000/svg">
<path d="M89.4291 6.45841C93.2631 21.6223 91.1978 38.4203 69.2199 47.2024C49.1532 55.2207 23.502 49.4744 19.6679 34.3106C15.8337 19.1467 29.6817 20.6028 44.6946 16.7816C59.7076 12.9604 85.5949 -8.70555 89.4291 6.45841Z" fill="#F1F1F1"/>
<path d="M37.8027 1H75.495V48.1154C75.495 48.3426 75.4048 48.5605 75.2441 48.7211C75.0835 48.8818 74.8656 48.972 74.6384 48.972H38.6594C38.4322 48.972 38.2143 48.8818 38.0537 48.7211C37.893 48.5605 37.8028 48.3426 37.8028 48.1154V1H37.8027Z" fill="white"/>
<path d="M42.0863 28.4126H40.373V45.5455H42.0863V28.4126Z" fill="#ED801D"/>
<path d="M75.495 1H37.8027V25.8427H75.495V1Z" fill="#586288"/>
<path d="M75.495 24.5874H37.8027V28.014H75.495V24.5874Z" fill="#495379"/>
<path d="M75.495 3.7489H37.8027V4.60554H75.495V3.7489Z" fill="#1D2D57"/>
<path d="M75.495 8.0321H37.8027V8.88874H75.495V8.0321Z" fill="#1D2D57"/>
<path d="M75.495 12.3153H37.8027V13.1719H75.495V12.3153Z" fill="#1D2D57"/>
<path d="M75.495 16.5985H37.8027V17.4552H75.495V16.5985Z" fill="#1D2D57"/>
<path d="M75.495 20.8817H37.8027V21.7384H75.495V20.8817Z" fill="#1D2D57"/>
<path d="M43.7988 1H44.6555V5.71153C44.6555 5.82513 44.6103 5.93407 44.53 6.0144C44.4497 6.09472 44.3407 6.13985 44.2271 6.13985C44.1135 6.13985 44.0046 6.09472 43.9243 6.0144C43.8439 5.93407 43.7988 5.82513 43.7988 5.71153V1Z" fill="#1D2D57"/>
<path d="M68.6426 1H69.4992V5.71153C69.4992 5.82513 69.4541 5.93407 69.3738 6.0144C69.2935 6.09472 69.1845 6.13985 69.0709 6.13985C68.9573 6.13985 68.8484 6.09472 68.768 6.0144C68.6877 5.93407 68.6426 5.82513 68.6426 5.71153V1Z" fill="#1D2D57"/>
<path d="M44.6555 23.88C44.6555 23.6434 44.4637 23.4517 44.2271 23.4517C43.9906 23.4517 43.7988 23.6434 43.7988 23.88V27.5856C43.7988 27.8222 43.9906 28.014 44.2271 28.014C44.4637 28.014 44.6555 27.8222 44.6555 27.5856V23.88Z" fill="#1D2D57"/>
<path d="M44.6555 11.0304C44.6555 10.7938 44.4637 10.6021 44.2271 10.6021C43.9906 10.6021 43.7988 10.7938 43.7988 11.0304V18.7402C43.7988 18.9767 43.9906 19.1685 44.2271 19.1685C44.4637 19.1685 44.6555 18.9767 44.6555 18.7402V11.0304Z" fill="#1D2D57"/>
<path d="M69.4992 23.88C69.4992 23.6434 69.3075 23.4517 69.0709 23.4517C68.8343 23.4517 68.6426 23.6434 68.6426 23.88V27.5856C68.6426 27.8222 68.8343 28.014 69.0709 28.014C69.3075 28.014 69.4992 27.8222 69.4992 27.5856V23.88Z" fill="#1D2D57"/>
<path d="M69.4992 11.0304C69.4992 10.7938 69.3075 10.6021 69.0709 10.6021C68.8343 10.6021 68.6426 10.7938 68.6426 11.0304V18.7402C68.6426 18.9767 68.8343 19.1685 69.0709 19.1685C69.3075 19.1685 69.4992 18.9767 69.4992 18.7402V11.0304Z" fill="#1D2D57"/>
<path d="M75.4951 28.014H71.2119V46.0035H75.4951V28.014Z" fill="#40A3FF"/>
<path d="M42.086 28.014H37.8027V46.0035H42.086V28.014Z" fill="#40A3FF"/>
<path d="M43.8 28.014H42.9434V31.4406H43.8V28.014Z" fill="#495379"/>
<path d="M43.3705 34.8608C44.3167 34.8608 45.0838 34.0937 45.0838 33.1475C45.0838 32.2013 44.3167 31.4342 43.3705 31.4342C42.4243 31.4342 41.6572 32.2013 41.6572 33.1475C41.6572 34.0937 42.4243 34.8608 43.3705 34.8608Z" stroke="#495379" stroke-width="0.856643" stroke-miterlimit="10"/>
<path d="M77.2079 46.0035H36.0891C35.6159 46.0035 35.2324 46.3871 35.2324 46.8602V49.4301C35.2324 49.9032 35.6159 50.2868 36.0891 50.2868H77.2079C77.681 50.2868 78.0646 49.9032 78.0646 49.4301V46.8602C78.0646 46.3871 77.681 46.0035 77.2079 46.0035Z" fill="#40A3FF"/>
<path d="M76.3519 50.2867H36.9463V52H76.3519V50.2867Z" fill="#495379"/>
<path d="M75.495 45.5454H37.8027V48.972H75.495V45.5454Z" fill="#40A3FF"/>
</svg>
