<svg width="110" height="53" viewBox="0 0 110 53" fill="none" xmlns="http://www.w3.org/2000/svg">
<path d="M88.9181 7.83798C92.6953 22.777 90.6606 39.3259 69.0087 47.9777C49.2395 55.8771 23.9687 50.216 20.1915 35.277C16.4142 20.338 30.0568 21.7726 44.8471 18.008C59.6375 14.2435 85.1408 -7.10109 88.9181 7.83798Z" fill="#F1F1F1"/>
<path d="M81.086 32.6675H29.6057C29.1396 32.6675 28.7617 33.0453 28.7617 33.5114V51.6561C28.7617 52.1222 29.1396 52.5 29.6057 52.5H81.086C81.5521 52.5 81.9299 52.1222 81.9299 51.6561V33.5114C81.9299 33.0453 81.5521 32.6675 81.086 32.6675Z" fill="#505B82"/>
<path d="M81.9299 40.0941H28.7617V40.9381H81.9299V40.0941Z" fill="#1D2D57"/>
<path d="M81.9299 35.9587H28.7617V36.8027H81.9299V35.9587Z" fill="#1D2D57"/>
<path d="M81.9299 44.2294H28.7617V45.0733H81.9299V44.2294Z" fill="#1D2D57"/>
<path d="M81.9299 48.3647H28.7617V49.2087H81.9299V48.3647Z" fill="#1D2D57"/>
<path d="M78.5534 3.80481H32.1367V31.8235H78.5534V3.80481Z" fill="white"/>
<path d="M32.3726 2.18787H29.8408V32.5697H32.3726V2.18787Z" fill="#40A3FF"/>
<path d="M48.5943 2.11694H46.0625V32.6674H48.5943V2.11694Z" fill="#40A3FF"/>
<path d="M64.6295 2.11694H62.0977V32.6674H64.6295V2.11694Z" fill="#40A3FF"/>
<path d="M82.1652 1.34394V3.03182H28.9971V1.34394C28.9971 1.12011 29.086 0.905454 29.2442 0.747185C29.4025 0.588915 29.6172 0.5 29.841 0.5H81.3213C81.5451 0.500003 81.7598 0.588919 81.918 0.747189C82.0763 0.905458 82.1652 1.12012 82.1652 1.34394Z" fill="#40A3FF"/>
<path d="M80.2416 32.6674V30.1356H30.4492V32.6674H80.2416Z" fill="#40A3FF"/>
<path d="M81.3219 2.18787H78.79V32.5697H81.3219V2.18787Z" fill="#40A3FF"/>
<path d="M29.6057 32.6675H30.4496V52.5001H28.7617V33.5114C28.7617 33.2876 28.8506 33.0729 29.0089 32.9147C29.1672 32.7564 29.3818 32.6675 29.6057 32.6675Z" fill="#1D2D57"/>
<path d="M80.2422 32.6675H81.0861C81.31 32.6675 81.5246 32.7564 81.6829 32.9147C81.8412 33.0729 81.9301 33.2876 81.9301 33.5114V52.5001H80.2422V32.6675Z" fill="#1D2D57"/>
<path d="M80.4779 6.40755V3.87573H30.6855V6.40755H80.4779Z" fill="#40A3FF"/>
<path d="M81.3221 4.71974V3.03186H29.8418V4.71974H81.3221Z" fill="#495379"/>
</svg>
