<svg width="110" height="53" viewBox="0 0 110 53" fill="none" xmlns="http://www.w3.org/2000/svg">
<path d="M93.0324 6.12057C97.0451 21.9909 94.8835 39.5714 71.8817 48.7627C50.8802 57.1546 24.0339 51.1406 20.0212 35.2702C16.0085 19.3999 30.5015 20.9239 46.2139 16.9247C61.9263 12.9254 89.0196 -9.74983 93.0324 6.12057Z" fill="#F1F1F1"/>
<path d="M74.9028 46.9681H73.4169C72.7687 46.9681 72.2432 47.4936 72.2432 48.1418V48.6694C72.2432 49.3177 72.7687 49.8431 73.4169 49.8431H74.9028C75.551 49.8431 76.0765 49.3177 76.0765 48.6694V48.1418C76.0765 47.4936 75.551 46.9681 74.9028 46.9681Z" fill="#535C7B"/>
<path d="M33.9102 47.9264H31.9935C31.4642 47.9264 31.0352 48.3554 31.0352 48.8847C31.0352 49.414 31.4642 49.8431 31.9935 49.8431H33.9102C34.4394 49.8431 34.8685 49.414 34.8685 48.8847C34.8685 48.3554 34.4394 47.9264 33.9102 47.9264Z" fill="#535C7B"/>
<path d="M82.5698 46.9681H81.0839C80.4357 46.9681 79.9102 47.4936 79.9102 48.1418V48.6694C79.9102 49.3177 80.4357 49.8431 81.0839 49.8431H82.5698C83.218 49.8431 83.7435 49.3177 83.7435 48.6694V48.1418C83.7435 47.4936 83.218 46.9681 82.5698 46.9681Z" fill="#535C7B"/>
<path d="M32.9512 6.71814H84.7012V48.0233C84.7012 48.2518 84.6104 48.4709 84.4489 48.6325C84.2873 48.794 84.0682 48.8848 83.8397 48.8848H33.8127C33.5842 48.8848 33.3651 48.794 33.2035 48.6325C33.0419 48.4709 32.9512 48.2518 32.9512 48.0233V6.71814Z" fill="#5494D1"/>
<path d="M29.1182 6.71814H78.9515V48.0249C78.9515 48.253 78.8609 48.4717 78.6997 48.633C78.5384 48.7942 78.3197 48.8848 78.0916 48.8848H29.978C29.75 48.8848 29.5313 48.7942 29.37 48.633C29.2088 48.4717 29.1182 48.253 29.1182 48.0249V6.71814Z" fill="#51A3EF"/>
<path d="M53.0765 24.9264H29.1182V25.8847H53.0765V24.9264Z" fill="#5494D1"/>
<path d="M53.0765 34.5098H29.1182V35.4681H53.0765V34.5098Z" fill="#5494D1"/>
<path d="M54.0346 48.8847V16.3014H53.0762V48.8847H54.0346Z" fill="#5494D1"/>
<path d="M61.76 11.5098H49.1854C48.6882 11.5098 48.2852 11.9128 48.2852 12.41V12.5262C48.2852 13.0234 48.6882 13.4264 49.1854 13.4264H61.76C62.2571 13.4264 62.6602 13.0234 62.6602 12.5262V12.41C62.6602 11.9128 62.2571 11.5098 61.76 11.5098Z" fill="#5494D1"/>
<path d="M60.801 10.5514H48.2264C47.7292 10.5514 47.3262 10.9544 47.3262 11.4516V11.5679C47.3262 12.065 47.7292 12.4681 48.2264 12.4681H60.801C61.2981 12.4681 61.7012 12.065 61.7012 11.5679V11.4516C61.7012 10.9544 61.2981 10.5514 60.801 10.5514Z" fill="white"/>
<path d="M46.4263 20.1348H38.6434C38.1462 20.1348 37.7432 20.5378 37.7432 21.035V21.1512C37.7432 21.6484 38.1462 22.0514 38.6434 22.0514H46.4263C46.9235 22.0514 47.3265 21.6484 47.3265 21.1512V21.035C47.3265 20.5378 46.9235 20.1348 46.4263 20.1348Z" fill="#5494D1"/>
<path d="M45.4683 19.1764H37.6854C37.1882 19.1764 36.7852 19.5794 36.7852 20.0766V20.1929C36.7852 20.69 37.1882 21.0931 37.6854 21.0931H45.4683C45.9655 21.0931 46.3685 20.69 46.3685 20.1929V20.0766C46.3685 19.5794 45.9655 19.1764 45.4683 19.1764Z" fill="white"/>
<path d="M46.4263 29.7181H38.6434C38.1462 29.7181 37.7432 30.1212 37.7432 30.6183V30.7346C37.7432 31.2318 38.1462 31.6348 38.6434 31.6348H46.4263C46.9235 31.6348 47.3265 31.2318 47.3265 30.7346V30.6183C47.3265 30.1212 46.9235 29.7181 46.4263 29.7181Z" fill="#5494D1"/>
<path d="M45.4683 28.7598H37.6854C37.1882 28.7598 36.7852 29.1628 36.7852 29.66V29.7762C36.7852 30.2734 37.1882 30.6764 37.6854 30.6764H45.4683C45.9655 30.6764 46.3685 30.2734 46.3685 29.7762V29.66C46.3685 29.1628 45.9655 28.7598 45.4683 28.7598Z" fill="white"/>
<path d="M46.4263 40.2598H38.6434C38.1462 40.2598 37.7432 40.6628 37.7432 41.16V41.2762C37.7432 41.7734 38.1462 42.1764 38.6434 42.1764H46.4263C46.9235 42.1764 47.3265 41.7734 47.3265 41.2762V41.16C47.3265 40.6628 46.9235 40.2598 46.4263 40.2598Z" fill="#5494D1"/>
<path d="M45.4683 39.3014H37.6854C37.1882 39.3014 36.7852 39.7044 36.7852 40.2016V40.3179C36.7852 40.815 37.1882 41.2181 37.6854 41.2181H45.4683C45.9655 41.2181 46.3685 40.815 46.3685 40.3179V40.2016C46.3685 39.7044 45.9655 39.3014 45.4683 39.3014Z" fill="white"/>
<path d="M57.8682 26.785V34.5679C57.8682 35.0651 58.2712 35.4681 58.7684 35.4681H58.8846C59.3818 35.4681 59.7848 35.0651 59.7848 34.5679V26.785C59.7848 26.2878 59.3818 25.8848 58.8846 25.8848H58.7684C58.2712 25.8848 57.8682 26.2878 57.8682 26.785Z" fill="#5494D1"/>
<path d="M56.9102 26.785V34.5679C56.9102 35.0651 57.3132 35.4681 57.8104 35.4681H57.9266C58.4238 35.4681 58.8268 35.0651 58.8268 34.5679V26.785C58.8268 26.2878 58.4238 25.8848 57.9266 25.8848H57.8104C57.3132 25.8848 56.9102 26.2878 56.9102 26.785Z" fill="white"/>
<path d="M84.7018 3.84314H29.1185C28.5892 3.84314 28.1602 4.2722 28.1602 4.80147V5.75981C28.1602 6.28908 28.5892 6.71814 29.1185 6.71814H84.7018C85.2311 6.71814 85.6602 6.28908 85.6602 5.75981V4.80147C85.6602 4.2722 85.2311 3.84314 84.7018 3.84314Z" fill="#495379"/>
<path d="M84.7015 15.3431H29.1182V16.3015H84.7015V15.3431Z" fill="#5494D1"/>
<path d="M84.7015 3.84314H78.9515C78.4222 3.84314 77.9932 4.2722 77.9932 4.80147V5.75981C77.9932 6.28908 78.4222 6.71814 78.9515 6.71814H84.7015C85.2308 6.71814 85.6598 6.28908 85.6598 5.75981V4.80147C85.6598 4.2722 85.2308 3.84314 84.7015 3.84314Z" fill="#535C7B"/>
</svg>
