<svg width="110" height="54" viewBox="0 0 110 54" fill="none" xmlns="http://www.w3.org/2000/svg">
<path d="M110 0H0V53H110V0Z" fill="white"/>
<path d="M90.3916 6.4967C94.3329 22.0848 92.2098 39.3526 69.6172 48.3803C48.9892 56.6229 22.6205 50.7159 18.6791 35.1279C14.7377 19.5398 28.973 21.0367 44.4059 17.1086C59.8388 13.1805 86.4502 -9.09141 90.3916 6.4967Z" fill="#F1F1F1"/>
<path d="M47.2053 51.264H45.4441C44.9577 51.264 44.5635 51.6583 44.5635 52.1446C44.5635 52.631 44.9577 53.0252 45.4441 53.0252H47.2053C47.6917 53.0252 48.0859 52.631 48.0859 52.1446C48.0859 51.6583 47.6917 51.264 47.2053 51.264Z" fill="#535C7B"/>
<path d="M63.0559 51.264H61.2947C60.8083 51.264 60.4141 51.6583 60.4141 52.1446C60.4141 52.631 60.8083 53.0252 61.2947 53.0252H63.0559C63.5422 53.0252 63.9365 52.631 63.9365 52.1446C63.9365 51.6583 63.5422 51.264 63.0559 51.264Z" fill="#535C7B"/>
<path d="M71.34 51.264H69.5788C69.0924 51.264 68.6982 51.6583 68.6982 52.1446C68.6982 52.631 69.0924 53.0252 69.5788 53.0252H71.34C71.8263 53.0252 72.2206 52.631 72.2206 52.1446C72.2206 51.6583 71.8263 51.264 71.34 51.264Z" fill="#535C7B"/>
<path d="M71.9026 1.078H41.7979C40.1411 1.078 38.7979 2.42115 38.7979 4.078V49.1531C38.7979 50.8099 40.1411 52.1531 41.7979 52.1531H71.9026C73.5595 52.1531 74.9026 50.8099 74.9026 49.1531V4.078C74.9026 2.42115 73.5595 1.078 71.9026 1.078Z" fill="#5494D1"/>
<path d="M66.8764 1.078H41.3984C39.7416 1.078 38.3984 2.42115 38.3984 4.078V49.1531C38.3984 50.8099 39.7416 52.1531 41.3984 52.1531H66.8764C68.5332 52.1531 69.8764 50.8099 69.8764 49.1531V4.078C69.8764 2.42115 68.5332 1.078 66.8764 1.078Z" fill="#51A3EF"/>
<path d="M69.8764 24.4604H38.3984V25.341H69.8764V24.4604Z" fill="#5494D1"/>
<path d="M45.4441 9.87561C44.9577 9.87561 44.5635 10.2699 44.5635 10.7562V20.4429C44.5635 20.9292 44.9577 21.3235 45.4441 21.3235C45.9304 21.3235 46.3247 20.9292 46.3247 20.4429V10.7562C46.3247 10.2699 45.9304 9.87561 45.4441 9.87561Z" fill="#5494D1"/>
<path d="M44.5622 9.87561C44.0759 9.87561 43.6816 10.2699 43.6816 10.7562V20.4429C43.6816 20.9292 44.0759 21.3235 44.5622 21.3235C45.0486 21.3235 45.4428 20.9292 45.4428 20.4429V10.7562C45.4428 10.2699 45.0486 9.87561 44.5622 9.87561Z" fill="white"/>
<path d="M45.4441 28.3683C44.9577 28.3683 44.5635 28.7625 44.5635 29.2489V38.9355C44.5635 39.4219 44.9577 39.8161 45.4441 39.8161C45.9304 39.8161 46.3247 39.4219 46.3247 38.9355V29.2489C46.3247 28.7625 45.9304 28.3683 45.4441 28.3683Z" fill="#5494D1"/>
<path d="M44.5622 28.3683C44.0759 28.3683 43.6816 28.7625 43.6816 29.2489V38.9355C43.6816 39.4219 44.0759 39.8161 44.5622 39.8161C45.0486 39.8161 45.4428 39.4219 45.4428 38.9355V29.2489C45.4428 28.7625 45.0486 28.3683 44.5622 28.3683Z" fill="white"/>
</svg>
