<svg width="110" height="53" viewBox="0 0 110 53" fill="none" xmlns="http://www.w3.org/2000/svg">
<path d="M91.0008 6.07052C95.01 21.9409 92.8503 39.5214 69.8684 48.7127C48.8851 57.1045 22.0621 51.0905 18.0528 35.2202C14.0436 19.3498 28.5241 20.8739 44.2228 16.8746C59.9216 12.8754 86.9915 -9.79989 91.0008 6.07052Z" fill="#F1F1F1"/>
<path d="M42.4915 50.2864H39.8557C39.361 50.2864 38.96 50.6874 38.96 51.1821V51.6043C38.96 52.099 39.361 52.5 39.8557 52.5H42.4915C42.9863 52.5 43.3873 52.099 43.3873 51.6043V51.1821C43.3873 50.6874 42.9863 50.2864 42.4915 50.2864Z" fill="#535C7B"/>
<path d="M77.8783 50.2864H75.2425C74.7477 50.2864 74.3467 50.6874 74.3467 51.1821V51.6043C74.3467 52.099 74.7477 52.5 75.2425 52.5H77.8783C78.373 52.5 78.774 52.099 78.774 51.6043V51.1821C78.774 50.6874 78.373 50.2864 77.8783 50.2864Z" fill="#535C7B"/>
<path d="M78.0521 2.33667H41.3203C39.6634 2.33667 38.3203 3.67982 38.3203 5.33667V48.5711C38.3203 50.228 39.6634 51.5711 41.3203 51.5711H78.0521C79.7089 51.5711 81.0521 50.228 81.0521 48.5711V5.33667C81.0521 3.67982 79.7089 2.33667 78.0521 2.33667Z" fill="#5494D1"/>
<path d="M73.2652 2.33667H39.3203C37.6634 2.33667 36.3203 3.67982 36.3203 5.33667V48.5711C36.3203 50.228 37.6634 51.5711 39.3203 51.5711H73.2652C74.9221 51.5711 76.2652 50.228 76.2652 48.5711V5.33667C76.2652 3.67982 74.9221 2.33667 73.2652 2.33667Z" fill="#51A3EF"/>
<path d="M77.1942 10.6971H36.3203V11.6261H77.1942V10.6971Z" fill="#5494D1"/>
<path d="M55.8291 41.0042C61.9856 41.0042 66.9765 36.0133 66.9765 29.8568C66.9765 23.7002 61.9856 18.7094 55.8291 18.7094C49.6725 18.7094 44.6816 23.7002 44.6816 29.8568C44.6816 36.0133 49.6725 41.0042 55.8291 41.0042Z" fill="white"/>
<path d="M47.3691 31.6484C47.3658 29.7683 47.8389 27.918 48.7442 26.2703C49.6496 24.6225 50.9577 23.231 52.5464 22.2256C54.1351 21.2202 55.9527 20.6338 57.8294 20.521C59.7061 20.4082 61.5808 20.7728 63.2785 21.5806C62.0903 20.509 60.6851 19.706 59.1587 19.2263C57.6322 18.7465 56.0203 18.6013 54.4327 18.8005C52.8451 18.9997 51.319 19.5387 49.9584 20.3807C48.5978 21.2227 47.4346 22.3479 46.5479 23.6799C45.6613 25.0118 45.0721 26.5192 44.8203 28.0993C44.5686 29.6795 44.6603 31.2953 45.0892 32.8368C45.5181 34.3783 46.274 35.8093 47.3057 37.0324C48.3373 38.2555 49.6204 39.242 51.0675 39.9246C49.9037 38.8828 48.9728 37.6071 48.3355 36.181C47.6982 34.7549 47.3689 33.2104 47.3691 31.6484Z" fill="#F1F1F1"/>
<path d="M55.9445 18.9218C58.1073 18.9218 60.2215 19.5631 62.0197 20.7647C63.818 21.9662 65.2196 23.674 66.0472 25.6722C66.8749 27.6703 67.0914 29.869 66.6695 31.9902C66.2476 34.1114 65.2061 36.0598 63.6768 37.5891C62.1475 39.1184 60.1991 40.1599 58.0779 40.5818C55.9567 41.0038 53.758 40.7872 51.7599 39.9596C49.7617 39.1319 48.0539 37.7303 46.8523 35.9321C45.6508 34.1338 45.0094 32.0196 45.0094 29.8569C45.0127 26.9577 46.1658 24.1782 48.2159 22.1282C50.2659 20.0782 53.0453 18.925 55.9445 18.9218ZM55.9445 16.5032C53.3034 16.5032 50.7216 17.2864 48.5256 18.7537C46.3296 20.221 44.618 22.3066 43.6073 24.7466C42.5966 27.1867 42.3321 29.8717 42.8474 32.462C43.3627 35.0524 44.6345 37.4318 46.502 39.2994C48.3696 41.1669 50.749 42.4387 53.3393 42.954C55.9297 43.4692 58.6147 43.2048 61.0548 42.1941C63.4948 41.1833 65.5804 39.4718 67.0477 37.2758C68.515 35.0798 69.2982 32.498 69.2982 29.8569C69.2982 28.1032 68.9528 26.3668 68.2817 24.7466C67.6106 23.1265 66.627 21.6544 65.387 20.4144C64.147 19.1744 62.6749 18.1907 61.0547 17.5197C59.4346 16.8486 57.6981 16.5032 55.9445 16.5032Z" fill="#535C7B"/>
<path d="M70.6929 6.05249H68.835V7.91039H70.6929V6.05249Z" fill="#535C7B"/>
<path d="M66.977 6.05249H65.1191V7.91039H66.977V6.05249Z" fill="#535C7B"/>
<path d="M63.2602 6.05249H61.4023V7.91039H63.2602V6.05249Z" fill="#535C7B"/>
<path d="M46.6059 5.12354H42.7574C41.7679 5.12354 40.9658 5.92564 40.9658 6.91509V7.0478C40.9658 8.03724 41.7679 8.83934 42.7574 8.83934H46.6059C47.5953 8.83934 48.3974 8.03724 48.3974 7.0478V6.91509C48.3974 5.92564 47.5953 5.12354 46.6059 5.12354Z" fill="#535C7B"/>
</svg>
